<svg id="Layer_1" data-name="Layer 1" xmlns="http://www.w3.org/2000/svg" viewBox="0 0 4869.78 3036.59">
  <defs>
    <style>
      .cls-1 {
        fill: #ce6149;
      }
    </style>
  </defs>
  <path class="cls-1" d="m 2796.9755,561.26599 c 31.1819,6.23638 62.3633,12.47265 316.4968,20.26807 254.1335,7.79542 731.2,17.14967 1018.0702,135.64157 286.8703,118.49191 383.5308,346.11197 403.7981,497.34257 20.2673,151.2306 -35.8582,226.0646 -159.0267,261.9232 -123.1684,35.8586 -313.3715,32.7405 -530.0849,32.7406 -216.7135,0 -459.9238,3.1181 -746.7964,-15.5912 -286.8726,-18.7092 -617.3893,-59.2443 -863.7244,-45.212 -246.3351,14.0323 -408.4754,82.6301 -606.4799,63.9203 -198.0044,-18.7099 -431.8606,-124.7247 -603.3597,-115.3691 -171.49921,9.3557 -280.63209,134.079 -332.0814,308.6974 -51.44931,174.6185 -45.21315,399.1204 34.3012,575.2968 79.51434,176.1764 232.3004,304.0177 408.4775,350.7894 176.1772,46.7717 375.7344,12.4728 594.0069,-3.1178 218.2725,-15.5907 455.2467,-12.4726 724.9693,-24.9455 269.7226,-12.4729 572.1765,-40.5356 851.2529,-32.7398 279.0764,7.7959 534.7592,51.4491 771.7404,70.1579 236.9812,18.7087 455.2468,12.4725 565.9409,90.4279 110.6941,77.9553 113.8122,240.0957 107.5758,413.1545 -6.2365,173.0588 -21.8269,357.0257 -121.6093,466.1609 -99.7824,109.1353 -283.7492,143.4341 -511.3764,148.1111 -227.6272,4.677 -498.9005,-20.2676 -782.6546,-38.9766 -283.7541,-18.709 -579.9718,-31.1814 -929.208,-42.095 -349.2362,-10.9136 -751.4688,-20.2679 -1018.0715,-10.9132 -266.6028,9.3547 -397.56218,37.4175 -486.42988,135.6408 -88.8677,98.2234 -135.63896,266.6 -132.52021,450.5725 3.11875,183.9725 56.12614,383.5298 289.99119,487.9875 233.8651,104.4578 648.57,113.8121 1046.1372,109.1347 397.5673,-4.6775 777.9734,-23.386 1120.9723,-31.1812 342.999,-7.7953 648.5708,-4.6772 860.6059,29.6231 212.0351,34.3004 330.5221,99.78 416.2715,224.5077 85.7494,124.7277 138.7568,308.6946 110.6924,441.2163 -28.0643,132.5218 -137.1973,213.592 -353.9115,249.4506 -216.7141,35.8586 -540.9946,26.5043 -801.3616,18.7089 -260.3671,-7.7954 -456.8062,-14.0316 -653.2495,-20.2679"/>
</svg>
