<svg id="Layer_1" data-name="Layer 1" xmlns="http://www.w3.org/2000/svg" viewBox="0 0 4869.78 3036.59">
  <defs>
    <style>
      .cls-1 {
        fill: #ce6149;
      }
    </style>
  </defs>
  <path class="cls-1" d="M135.57-383.1C294.73-486,472.84-559.17,657.83-599.83c40.82-9,87.6-23.13,129.76-19.7,43.55,3.55,49.62,38.4,46.12,74.8-3.93,41,12.54,79.18,47.72,101.64,37.12,23.7,79.75,17.43,119.31,4.2,83.8-28,154-78.4,220.35-135.41,62-53.26,121.72-109.07,183.24-162.86,114.61-100.22,240.4-199.23,381.58-258.94,66.56-28.15,141-51.8,212.87-60.87,51.23-6.47,107.83,1,147.71,34,108.34,89.49,43.77,255.81-14,355.06C2057.6-539.32,1945.75-452.58,1820-377.41c-68.33,40.85-137.18,80.8-203.08,125.55-56.87,38.61-112.87,81.28-152,138.8-29.17,42.91-51.1,93.33-46.09,146.3,4.8,50.72,37,90.89,78.79,117.53,61,38.91,138.64,48.33,209.3,51.32,85.21,3.6,170.81,1.57,255.32-10.43,101.26-14.37,193.69-48.5,282.51-98.41,33.4-18.77,66.62-38,102-52.87,4.28-1.8,8.59-3.51,12.91-5.23,10.64-4.23-5.78,2,1-.38,2.28-.8,4.54-1.64,6.83-2.38,10.76-3.5,21.52-6.86,32.48-9.68a433,433,0,0,1,81.25-13.13c61.29-3.87,130.6,5,176.47,49.88,39,38.17,45.83,92.32,32.65,143.5-7.24,28.11-22,55.79-42.7,73.83-19.51,17-33.92,23.74-58.19,37.71-47.89,27.57-94.26,69.42-85.81,130.87,7.59,55.16,76.36,67.41,120.8,76.59,22.85,4.71,52.82,10,71.11,16.95,10.05,3.83,18.89,8.79,22.69,12.31,5.42,5,.81-1.18,4.85,6.82,2.06,4.07,3.73,8.44,5.5,12.65,1.83,4.37,3.63,8.75,5.24,13.21,2.47,6.84,1.16,2.76,2,6.69.94,4.28,1.67,8.54,2.23,12.88,1.13,8.69,1.35,2.33-.07,11.22-3.29,20.68-18.9,38.2-39.63,54.68-13.58,10.79-27.93,19.88-42.84,28.71-1.32.78-3.54,1.15-4.65,2.16-5.87,5.32,10.88-2.92,2.12-.82-11.27,2.7-22.27,6.06-33.69,8.3-7.24,1.42-14.52,2.67-21.81,3.84-4.26.68-8.53,1.31-12.8,2-2,.3-7.73,1,1.61-.22-2.6.36-5.19.71-7.79,1q-30.51,3.87-61.13,6.83c-50.79,4.91-101.71,8.44-152.64,11.5-125.86,7.56-251.89,12.12-377.9,16.09-246.21,7.75-492.6,10.78-738.74,20.72C1080.63,776.23,913.63,790.9,746.3,801,659,806.27,571.5,809.88,484,810.67c-96.42.87-192.5-4.59-288.84-5.9-90.22-1.22-180.38,3.75-270.47,7.78-57.61,2.59-120.08,5.28-173.86,0-151.14-14.77-302.89-41.73-454.93-27.67-84.12,7.78-168.12,18.91-252.75,18.84-57.44,0-110.22-10.42-165.92-22.2-134.86-28.5-277.36-38.78-414-18.9-147.6,21.47-284.59,99-377.12,216.8-37.72,48-70.46,106.62-73.89,168.86-3.5,63.68,26,118.82,77.3,155.9,26.56,19.23,56.79,31.44,84.32,49,21.46,13.71,41.07,30.15,59.55,47.63,39.93,37.78,74.13,81.14,107,125,68.47,91.36,133.28,188.79,226.69,257,52,37.95,109.3,65.8,172,81.11,81.81,20,168.5,16.43,252.09,20.67,145,7.36,289.83,19.92,435,21.71,151.13,1.86,301.63-11,452.25-21.59,159.13-11.24,318.33-22,477.7-29.4,131.44-6.1,264.49-13,396-3.89,16.94,1.18,43.47,4.63,67.47,5.84,30.08,1.52,60.27.7,90.31-1.07,70.09-4.15,139.86-13.66,209.21-24.35,129.46-20,257.45-47.87,386.63-69.31q7.85-1.29,15.69-2.53c2.76-.43,16.37-2.46,12.64-1.93-4.46.62,7.68-1,9.27-1.18,4.73-.57,9.46-1,14.2-1.51a384.18,384.18,0,0,0,71.32-13.57c63.06-18.43,123.89-44.87,184.53-69.89,119.82-49.43,249.53-112.23,382-108.67,122.41,3.29,248.59,26.89,366.51,62.74,54.33,16.52,108.26,37.05,157.17,66.21,19.85,11.83,37.45,24.49,53.82,41.44,7.57,7.83,11.41,12.29,15.37,18.6a127.73,127.73,0,0,1,6.78,12.08c1,2,6,15.26,4.47,10,5.93,20.41,24.5,29,45.08,23.9,16.43-4.1,42.24-23.89,36.28-44.4-31.51-108.46-162.69-156.74-259.23-188.74-123.24-40.85-254.17-64.15-383.69-71.82-137.92-8.17-266.43,41.72-392.29,92.66-62.6,25.34-127.22,54.08-189,75.68-24.38,8.53-49.11,16.35-74.54,21.1-9.57,1.79,2.92.12-8.29,1q-5.36.43-10.69,1c-12,1.27-24,3-35.95,4.73-124,18-246.51,46.07-370.14,66.55-121.08,20.06-248.83,36.85-366.79,26.19-128.62-11.61-259.23-5.24-388,.3-161.76,6.95-323.35,17.71-484.85,29-151.57,10.63-303.13,24.29-455.2,23.65-144.11-.6-287.88-12.83-431.71-20.5-83.76-4.46-171.25,0-253.36-19a406.11,406.11,0,0,1-156.6-74.51c-91.22-70.72-154.61-168.85-223.55-259.74-33.47-44.12-68.7-87.42-110.19-124.32a483.22,483.22,0,0,0-68.29-50.93c-26.25-16.09-55.71-26.76-79.36-46.92-100.56-85.72-10.91-216,64.64-283.92C-1748,912.08-1690.7,874-1629.13,853.72c79.07-26.08,163.87-31.51,246.58-29.45,65.35,1.63,130.47,8.83,194.79,20.45,42.68,7.72,84.27,20.39,127.44,25.22,87.64,9.79,175.52,3.09,262.94-5.67,74.57-7.48,148.74-16.69,223.76-11.37,137.16,9.73,274.72,37.52,412.46,33.74,84.66-2.32,169.19-8,253.86-10,96.42-2.26,192.54,4,288.93,5.14,175.3,2.11,350-8.74,524.78-21.25,267.55-19.15,534.91-26.31,803-33.14,253.22-6.44,507.43-10.44,760-31.76,43.46-3.67,86.86-8.15,130-14.7,27.62-4.19,55.91-9,81.67-20.33,55.55-24.42,119.84-76.25,135.67-137.53,9.84-38.11-3.29-94.87-31.85-123.34-37.72-37.6-101.69-40.71-150.71-52.24-10.8-2.54-22.82-5.64-29.56-8.44a93.2,93.2,0,0,1-13-6.38c2.69,1.65-6.53-5.28-5.28-4.22-1.05-.89-1.13-2.85-1.2-3.6-.4-4.22.14-8.06.58-12.3.69-6.55,1.07-6,2.46-9.94,3.07-8.76-.16-3.23,6.18-9.74,1.13-1.16,5.56-5.44-.05-.17a62.19,62.19,0,0,1,5.57-4.77c4.08-3,8.05-6.06,12.29-8.84-7.45,4.88,7.56-4.25,9.31-5.25,6.14-3.51,12.35-6.91,18.49-10.43,27.65-15.84,53.34-33.21,75.45-56.29,46.52-48.55,70-123.4,62-190-18-150.12-185.65-191.59-312.76-176-92.38,11.3-171.1,47.63-251.26,92.63-37.13,20.84-74.95,40.68-114.95,55.5,7.78-2.88-7.62,2.59-9.08,3.09q-8.28,2.79-16.63,5.37-20.07,6.18-40.5,11.07a753,753,0,0,1-91.63,16.11c-83.81,9.46-171.81,12.35-255.77,3.66-56.54-5.86-121.76-19.19-161-62-25-27.23-29.05-66.9-17.26-100.71,17.75-50.86,55.79-91.4,98.4-125.31C1723-253.65,1863.17-315.33,1985-404.22c130.2-95,237.13-231.62,284.14-387C2304.57-908.41,2285-1053,2161-1107.62c-60.58-26.69-127.89-27-191.88-14.06-78.89,16-157,39.68-230.45,72.67C1595-984.5,1465.22-882.15,1347.58-778.73c-61.29,53.89-120.95,109.64-183.08,162.57-28.3,24.11-57.09,48.31-88.65,68.09a460,460,0,0,1-57.14,30.25c-18.36,8.17-42.47,19.9-62.84,20.06-12.37.09-24.53-7.05-31.92-16.87-11.83-15.73-8.78-31.36-7.35-49.43,3.39-42.75-9.71-83.41-46.89-107.59-39.2-25.49-88.13-20.28-132-13.4-45.94,7.22-91.57,16.87-136.66,28.21C418-610.81,244.71-533.63,86.33-431.25c-16.3,10.54-21.9,36-8.06,50.38,16,16.62,41.13,8.22,57.3-2.23Z" transform="translate(1988.09 1130.01)"/>
</svg>
